<svg viewBox="0 0 64 64" xmlns="http://www.w3.org/2000/svg">
  <defs>
    <linearGradient id="bg" x1="0" y1="0" x2="0" y2="1">
      <stop offset="0" stop-color="#c07a28"/>
      <stop offset="1" stop-color="#7a430e"/>
    </linearGradient>
  </defs>
  <rect width="64" height="64" rx="14.5" fill="url(#bg)"/>
  <g fill="#fff7ec">
    <rect x="29.2" y="3.4" width="5.6" height="8.6" rx="2.3" transform="rotate(0 32 32)"/>
    <rect x="29.2" y="3.4" width="5.6" height="8.6" rx="2.3" transform="rotate(45 32 32)"/>
    <rect x="29.2" y="3.4" width="5.6" height="8.6" rx="2.3" transform="rotate(90 32 32)"/>
    <rect x="29.2" y="3.4" width="5.6" height="8.6" rx="2.3" transform="rotate(135 32 32)"/>
    <rect x="29.2" y="3.4" width="5.6" height="8.6" rx="2.3" transform="rotate(180 32 32)"/>
    <rect x="29.2" y="3.4" width="5.6" height="8.6" rx="2.3" transform="rotate(225 32 32)"/>
    <rect x="29.2" y="3.4" width="5.6" height="8.6" rx="2.3" transform="rotate(270 32 32)"/>
    <rect x="29.2" y="3.4" width="5.6" height="8.6" rx="2.3" transform="rotate(315 32 32)"/>
  </g>
  <circle cx="32" cy="32" r="22.6" fill="none" stroke="#fff7ec" stroke-width="4.6"/>
  <path fill="#fff7ec" d="M29.1 18.6h5.8a1 1 0 0 1 1 1v4.6c0 3 4.9 3.7 4.9 7.7v11a3 3 0 0 1-3 3H27.2a3 3 0 0 1-3-3v-11c0-4 4.9-4.7 4.9-7.7v-4.6a1 1 0 0 1 1-1z"/>
</svg>
